<svg width="1663" height="276" viewBox="0 0 1663 276" fill="none" xmlns="http://www.w3.org/2000/svg">
<g clip-path="url(#clip0_12_26)">
<mask id="mask0_12_26" style="mask-type:luminance" maskUnits="userSpaceOnUse" x="0" y="0" width="1663" height="276">
<path d="M1663 0H0V276H1663V0Z" fill="white"/>
</mask>
<g mask="url(#mask0_12_26)">
<path d="M1663 0H0V276H1663V0Z" fill="url(#paint0_radial_12_26)"/>
<g style="mix-blend-mode:multiply" opacity="0.75" filter="url(#filter0_d_12_26)">
<path d="M-194 823.307C-194 1406.69 288.637 1879.62 884 1879.62C1479.36 1879.62 1962 1406.69 1962 823.307C1962 239.923 1479.36 -233.003 884 -233.003C288.637 -233.003 -194 239.923 -194 823.307Z" fill="white"/>
</g>
<g style="mix-blend-mode:multiply" opacity="0.75" filter="url(#filter1_d_12_26)">
<path d="M-194 823.307C-194 1274.9 179.916 1641 641.164 1641C1102.41 1641 1476.33 1274.9 1476.33 823.307C1476.33 371.71 1102.41 5.61804 641.164 5.61804C179.916 5.61804 -194 371.71 -194 823.307Z" fill="white"/>
</g>
<g style="mix-blend-mode:multiply" opacity="0.75" filter="url(#filter2_d_12_26)">
<path d="M-99.998 901.642C-99.998 1285.35 217.533 1596.41 609.228 1596.41C1000.92 1596.41 1318.45 1285.35 1318.45 901.642C1318.45 517.934 1000.92 206.877 609.228 206.877C217.533 206.877 -99.998 517.934 -99.998 901.642Z" fill="white"/>
</g>
</g>
</g>
<defs>
<filter id="filter0_d_12_26" x="-354" y="-385.003" width="2524" height="2480.62" filterUnits="userSpaceOnUse" color-interpolation-filters="sRGB">
<feFlood flood-opacity="0" result="BackgroundImageFix"/>
<feColorMatrix in="SourceAlpha" type="matrix" values="0 0 0 0 0 0 0 0 0 0 0 0 0 0 0 0 0 0 127 0" result="hardAlpha"/>
<feOffset dx="24" dy="32"/>
<feGaussianBlur stdDeviation="92"/>
<feComposite in2="hardAlpha" operator="out"/>
<feColorMatrix type="matrix" values="0 0 0 0 0.0235294 0 0 0 0 0.0313726 0 0 0 0 0.34902 0 0 0 0.75 0"/>
<feBlend mode="normal" in2="BackgroundImageFix" result="effect1_dropShadow_12_26"/>
<feBlend mode="normal" in="SourceGraphic" in2="effect1_dropShadow_12_26" result="shape"/>
</filter>
<filter id="filter1_d_12_26" x="-354" y="-146.382" width="2038.33" height="2003.38" filterUnits="userSpaceOnUse" color-interpolation-filters="sRGB">
<feFlood flood-opacity="0" result="BackgroundImageFix"/>
<feColorMatrix in="SourceAlpha" type="matrix" values="0 0 0 0 0 0 0 0 0 0 0 0 0 0 0 0 0 0 127 0" result="hardAlpha"/>
<feOffset dx="24" dy="32"/>
<feGaussianBlur stdDeviation="92"/>
<feComposite in2="hardAlpha" operator="out"/>
<feColorMatrix type="matrix" values="0 0 0 0 0.0235294 0 0 0 0 0.0313726 0 0 0 0 0.34902 0 0 0 0.75 0"/>
<feBlend mode="normal" in2="BackgroundImageFix" result="effect1_dropShadow_12_26"/>
<feBlend mode="normal" in="SourceGraphic" in2="effect1_dropShadow_12_26" result="shape"/>
</filter>
<filter id="filter2_d_12_26" x="-259.998" y="54.8771" width="1786.45" height="1757.53" filterUnits="userSpaceOnUse" color-interpolation-filters="sRGB">
<feFlood flood-opacity="0" result="BackgroundImageFix"/>
<feColorMatrix in="SourceAlpha" type="matrix" values="0 0 0 0 0 0 0 0 0 0 0 0 0 0 0 0 0 0 127 0" result="hardAlpha"/>
<feOffset dx="24" dy="32"/>
<feGaussianBlur stdDeviation="92"/>
<feComposite in2="hardAlpha" operator="out"/>
<feColorMatrix type="matrix" values="0 0 0 0 0.0235294 0 0 0 0 0.0313726 0 0 0 0 0.34902 0 0 0 0.75 0"/>
<feBlend mode="normal" in2="BackgroundImageFix" result="effect1_dropShadow_12_26"/>
<feBlend mode="normal" in="SourceGraphic" in2="effect1_dropShadow_12_26" result="shape"/>
</filter>
<radialGradient id="paint0_radial_12_26" cx="0" cy="0" r="1" gradientUnits="userSpaceOnUse" gradientTransform="translate(831.5 138) rotate(90) scale(416.556 603.412)">
<stop stop-color="#3B8AFF"/>
<stop offset="1" stop-color="#0048B3"/>
</radialGradient>
<clipPath id="clip0_12_26">
<rect width="1663" height="276" fill="white"/>
</clipPath>
</defs>
</svg>
